<svg width="51" height="34" viewBox="0 0 51 34" fill="none" xmlns="http://www.w3.org/2000/svg">
<path d="M8.3213 25.1037L12.3071 32.1431L14.1952 33.3085H23.7984L28.973 30.1385L32.9589 24.0548L42.2125 26.7354L37.2943 17.3652L51 14.6613L42.2125 11.1417L50.0676 5.87386L32.1431 6.80622L30.3716 0.606033L21.351 7.97166L18.5306 0L14.1952 3.86929H0L9.16042 11.9575L5.17459 13.0297L1.65494 23.3323L6.57313 30.1385L8.3213 25.1037Z" fill="white"/>
<path d="M11.6079 18.7637L15.3607 21.7006L16.899 17.0155L13.9621 15.7102L11.6079 18.7637Z" fill="black"/>
<path d="M21.118 18.7637L23.3323 17.0155L27.0851 20.5352L23.3323 22.9826L21.118 18.7637Z" fill="black"/>
<path d="M11.6079 18.7637L15.3607 21.7006L16.899 17.0155L13.9621 15.7102L11.6079 18.7637Z" stroke="white"/>
<path d="M21.118 18.7637L23.3323 17.0155L27.0851 20.5352L23.3323 22.9826L21.118 18.7637Z" stroke="white"/>
</svg>
