<?xml version="1.0" standalone="no"?>
<!DOCTYPE svg PUBLIC "-//W3C//DTD SVG 20010904//EN"
 "http://www.w3.org/TR/2001/REC-SVG-20010904/DTD/svg10.dtd">
<svg version="1.0" xmlns="http://www.w3.org/2000/svg"
 width="440.000000pt" height="440.000000pt" viewBox="0 0 440.000000 440.000000"
 preserveAspectRatio="xMidYMid meet">
<metadata>
Created by potrace 1.14, written by Peter Selinger 2001-2017
</metadata>
<g transform="translate(0.000000,440.000000) scale(0.100000,-0.100000)"
fill="#000000" stroke="none">
<path d="M1868 4315 c-1 -1 -36 -5 -77 -8 -43 -3 -79 -11 -87 -19 -8 -7 -18
-38 -24 -68 -5 -30 -12 -68 -15 -85 -3 -16 -12 -70 -20 -120 -27 -163 -36
-195 -51 -195 -13 0 -47 65 -105 198 -11 25 -25 43 -36 43 -107 9 -251 -31
-255 -70 -1 -9 -2 -23 -4 -31 -1 -8 -2 -30 -3 -49 l-1 -34 -35 46 c-19 25 -44
49 -56 52 -25 8 -187 -69 -203 -97 -9 -16 0 -67 34 -183 33 -117 46 -174 38
-169 -5 4 -26 21 -46 39 -79 71 -158 138 -179 152 -20 13 -26 13 -65 -7 -78
-39 -123 -75 -142 -115 l-18 -39 65 -163 65 -162 -37 -12 c-71 -23 -120 -49
-126 -68 -6 -19 -8 -31 -21 -97 -4 -24 3 -49 31 -105 21 -41 34 -71 29 -66 -4
4 -15 0 -25 -9 -16 -14 -21 -14 -58 5 -48 25 -64 26 -99 7 -15 -8 -35 -17 -44
-20 -10 -3 -31 -24 -48 -48 -27 -37 -31 -49 -25 -83 3 -22 14 -48 23 -58 9
-11 89 -75 177 -142 197 -151 176 -131 325 -304 69 -79 135 -155 148 -170 13
-14 34 -26 48 -26 30 -2 64 -62 58 -103 -2 -15 -5 -51 -7 -80 -5 -60 -2 -56
-46 -71 -120 -40 -209 -183 -199 -320 4 -56 37 -136 74 -180 52 -62 176 -115
254 -109 30 3 35 -1 62 -51 28 -52 96 -155 124 -190 72 -88 104 -131 104 -136
0 -10 -54 -54 -67 -55 -7 0 -13 10 -13 21 0 13 -21 42 -51 71 -40 38 -54 47
-64 38 -14 -11 -171 -245 -193 -287 -10 -18 -6 -34 24 -97 42 -89 40 -88 168
-51 47 14 92 25 99 25 7 0 29 -18 49 -40 21 -22 62 -56 93 -75 48 -31 55 -40
56 -68 0 -43 6 -179 8 -194 1 -13 27 -19 116 -29 33 -3 71 -7 85 -9 14 -2 57
-6 95 -10 39 -4 75 -8 80 -9 6 0 10 30 10 74 0 43 5 74 10 73 6 -1 30 -4 55
-8 24 -4 47 -8 50 -10 3 -2 30 -6 60 -9 30 -3 64 -8 75 -10 83 -15 134 -19
315 -21 114 -1 237 2 274 6 37 5 91 11 119 13 166 16 359 74 445 134 27 19 27
19 69 -7 24 -14 74 -48 113 -75 38 -27 72 -47 73 -45 2 2 33 40 69 84 35 44
63 87 61 95 -5 17 -39 104 -53 135 -28 62 -42 104 -46 140 -2 22 -26 99 -52
170 l-49 130 -89 47 c-49 26 -93 49 -99 51 -6 3 0 24 14 48 13 24 37 70 53
102 27 50 34 57 62 58 117 3 212 62 261 163 71 146 16 316 -127 391 l-54 28
-2 61 c-2 62 -8 119 -18 169 -3 16 -7 38 -9 50 -2 12 -6 36 -10 53 -6 28 -4
33 16 39 17 6 300 204 374 262 6 5 66 48 135 98 69 49 131 95 138 101 7 8 12
38 12 74 l0 60 -46 30 c-40 25 -54 28 -103 25 -31 -2 -130 -6 -221 -10 -91 -4
-169 -7 -175 -8 -21 -4 -1 29 143 236 82 116 165 237 186 268 l36 55 -16 39
c-18 43 -97 125 -120 125 -8 0 -59 -23 -112 -51 -53 -28 -162 -85 -242 -127
-80 -41 -149 -79 -154 -83 -26 -23 -22 -2 15 80 21 49 39 98 39 108 0 11 -23
41 -50 67 -48 45 -50 49 -41 81 7 26 5 39 -7 57 -24 34 -33 41 -82 65 -74 35
-74 35 -128 -18 -41 -41 -56 -49 -87 -49 -25 0 -43 -8 -61 -25 l-25 -26 5 51
c9 75 15 137 21 215 10 117 15 178 21 228 5 44 3 50 -28 81 -45 45 -203 91
-234 69 -6 -4 -71 -107 -144 -228 -73 -121 -135 -222 -137 -224 -7 -10 -11 8
-17 79 -16 189 -11 179 -104 204 -69 19 -85 21 -120 12 -51 -12 -64 -19 -72
-39 -10 -27 -8 -30 -50 125 -25 90 -37 120 -55 132 -22 15 -70 28 -77 21z
m1351 -3437 c-16 -57 -31 -108 -33 -115 -4 -8 -16 -6 -46 8 -28 14 -38 24 -33
33 19 32 129 175 134 176 4 0 -6 -46 -22 -102z m-1607 -355 c52 -57 59 -70 29
-53 -11 5 -34 10 -51 10 -52 0 -170 74 -170 107 0 8 14 28 32 45 l32 30 40
-44 c21 -23 61 -67 88 -95z m1466 85 c85 -42 152 -96 152 -122 0 -57 -238
-145 -438 -161 -37 -4 -77 -8 -89 -11 -13 -2 -23 -3 -23 -2 0 2 42 46 93 98
51 52 119 128 151 168 32 39 61 72 63 72 3 0 44 -19 91 -42z m392 17 c0 -9
-63 -75 -72 -75 -4 0 -8 5 -8 11 0 6 -9 24 -21 40 l-20 29 60 0 c34 0 61 -2
61 -5z"/>
</g>
</svg>
